<svg xmlns="http://www.w3.org/2000/svg" xmlns:xlink="http://www.w3.org/1999/xlink" version="1.0" id="katman_1" x="0px" y="0px" style="enable-background:new 0 0 800 600;" xml:space="preserve" viewBox="93.2 243.4 612.8 112.2">
<style type="text/css">
	.st0{clip-path:url(#SVGID_00000013180035363381834990000007166402969929043134_);}
	.st1{fill:#2D2E7E;}
</style><style class="darkreader darkreader--sync" media="screen"/>
<g>
	<defs>
		<rect id="SVGID_1_" x="93.2" y="243.4" width="612.8" height="112.2"/>
	</defs>
	<clipPath id="SVGID_00000064320774381341088740000005928473719343928469_">
		<use xlink:href="#SVGID_1_" style="overflow:visible;"/>
	</clipPath>
	<g style="clip-path:url(#SVGID_00000064320774381341088740000005928473719343928469_);">
		<path class="st1" d="M693.3,333.9v-68.1H706v68.1H693.3z"/>
		<path class="st1" d="M297.5,311.9c0,14.2-10.6,23.2-22.2,23.2c-5.2,0-11.3-2.1-14.5-6.7v5.5h-12.7v-68.1h12.8v29.3    c3.2-4.4,9.4-6.4,14.5-6.4C287,288.7,297.5,297.7,297.5,311.9z M284.6,311.9c0-6.5-5.2-11.6-11.6-11.6c-5.9,0-11.7,4.9-11.7,11.6    c0,6.7,5.5,11.7,11.7,11.7C279.4,323.6,284.6,318.3,284.6,311.9z"/>
		<path class="st1" d="M337.1,289.9h12.7V334h-12.7v-7.2c-1.9,5.8-9.1,8.3-13.5,8.3c-11.8,0-18-7.7-17.9-21v-24.3h12.7v23.7    c0,6.9,4.2,10.1,8.6,10.1c4.5,0,10.1-2.4,10.1-10.4V289.9z"/>
		<path class="st1" d="M405.2,309.8V334h-12.7v-23.6c0-6.9-4.2-10-8.6-10c-4.5,0-10.1,2.3-10.1,10.4V334h-12.7v-44.2h12.7v7.5    c1.9-5.9,9.1-8.6,13.5-8.6C399.2,288.7,405.3,296.5,405.2,309.8z"/>
		<path class="st1" d="M460.3,309.8V334h-12.7v-23.6c0-6.9-4.2-10-8.6-10c-4.5,0-10.1,2.3-10.1,10.4V334h-12.7v-44.2h12.7v7.5    c1.9-5.9,9.1-8.6,13.5-8.6C454.2,288.7,460.4,296.5,460.3,309.8z"/>
		<path class="st1" d="M498.4,289.9H512l-27.9,65.7h-13.5l10.8-25.8l-17.9-39.9h13.9l10.7,25.5L498.4,289.9z"/>
		<path class="st1" d="M514.2,320.1h11.9c0,2.5,2.2,5.3,6.6,5.3c3.7,0,6.4-1.8,6.4-4.3c0-1.9-1.6-2.9-5-3.7l-6-1.4    c-11.6-3.1-13.2-9.4-13.2-13.9c0-6.8,7.3-13.2,17.7-13.2c8.2,0,17.9,3.9,17.8,14.4h-12.1c0-3.1-2.5-4.6-5.5-4.6    c-2.9,0-5.2,1.6-5.2,3.9c0,2.1,1.9,3.1,4.4,3.8l7.5,1.9c10.9,2.9,12.2,9.4,12.2,13c0,9.3-9.7,14.1-19,14.1    C523.5,335.1,514.3,329.8,514.2,320.1L514.2,320.1z"/>
		<path class="st1" d="M605,309.8V334h-12.7v-23.5c0-6.9-4.2-10.1-8.6-10.1c-4.5,0-10.1,2.4-10.1,10.4V334h-12.7v-68.1h12.7v31    c1.9-5.7,9.2-8.1,13.5-8.1C598.9,288.7,605.1,296.5,605,309.8z"/>
		<path class="st1" d="M660.4,315.9h-34c1.4,5.2,5.6,8.2,11.6,8.2c4.6,0,9.1-2.1,11.9-5.2l7.4,7.3c-4.2,5.6-12.1,8.9-20,8.9    c-13.9,0-24.1-9.5-24.1-23.1c0-14.3,11.1-23.2,24-23.2c13,0,23.5,9,23.5,22.5C660.7,312.4,660.6,314,660.4,315.9L660.4,315.9z     M647.9,307.9c-0.4-5.2-4.7-8.5-10.4-8.5c-5.2,0-9.7,2.5-11,8.5H647.9z"/>
		<path class="st1" d="M669.4,333.9v-68.1h12.7v68.1H669.4z"/>
		<path class="st1" d="M198.6,253.3c3,1.2,4.4,4.6,3.2,7.5c-1,2.3-3.2,3.6-5.5,3.6c-0.7,0-1.6-0.1-2.3-0.5c-14.7-6.1-30.4-9-46.3-9    c-3.3,0-5.8-2.6-5.8-5.7s2.7-5.7,5.8-5.7C165.3,243.3,182.4,246.6,198.6,253.3z"/>
		<path class="st1" d="M198.6,276.3c3,1.2,4.4,4.6,3.2,7.5c-1,2.3-3.2,3.6-5.5,3.6c-0.7,0-1.6-0.1-2.3-0.5c-14.7-6.1-30.3-9-46.3-9    c-16.2,0-31.7,3-46.3,8.9c-3,1.2-6.4-0.1-7.7-3.1c-1.2-3,0.1-6.3,3.2-7.5c16-6.5,33.1-9.9,50.8-9.9    C165.3,266.3,182.4,269.6,198.6,276.3z"/>
		<path class="st1" d="M175.8,292.3c3.2,0.7,5.2,3.7,4.5,6.8c-0.7,3.1-3.8,5.1-6.9,4.4c-8.6-1.8-17.3-2.7-25.6-2.7    c-16.2,0-31.7,3-46.3,9c-0.7,0.2-1.5,0.5-2.3,0.5c-2.3,0-4.5-1.3-5.5-3.6c-1.2-3,0.1-6.3,3.2-7.5c16-6.5,33.1-9.9,50.8-9.9    C157,289.3,166.5,290.3,175.8,292.3z"/>
		<path class="st1" d="M147.8,312.3c3.3,0,5.8,2.6,5.8,5.7c0,3.1-2.7,5.7-5.8,5.7c-16.2,0-31.7,3-46.3,9c-0.7,0.2-1.5,0.5-2.3,0.5    c-2.3,0-4.5-1.3-5.5-3.6c-1.2-3,0.1-6.3,3.2-7.5C113,315.6,130,312.3,147.8,312.3z"/>
	</g>
</g>
</svg>