<svg xmlns="http://www.w3.org/2000/svg" viewBox="0 0 100 32"><path d="M3.409 32.002c1.883 0 3.41-1.544 3.41-3.449 0-1.905-1.527-3.449-3.41-3.449C1.526 25.104 0 26.648 0 28.553c0 1.905 1.526 3.449 3.409 3.449Zm11.279-9.452c2.262 0 4-1.525 4.622-3.05l2.951 1.923C20.753 24.11 18.065 26 14.493 26c-4.753 0-9.08-3.814-9.08-9.385 0-5.539 4.327-9.386 9.08-9.386 3.604 0 6.26 1.924 7.735 4.61l-2.95 1.924c-.59-1.526-2.294-3.051-4.59-3.051-3.604 0-5.572 2.686-5.572 5.936s1.968 5.903 5.572 5.903Zm11.895-4.974c0 2.686 1.9 4.974 5.113 4.974 2.262 0 3.835-1.16 4.393-2.686l3.179 1.526C37.761 24.076 35.105 26 31.5 26c-4.72 0-8.72-3.814-8.72-9.386 0-5.538 3.77-9.385 8.72-9.385 4.556 0 8.325 3.648 8.325 9.186l-.394 1.16H26.583Zm.197-3.35h9.079c-.197-1.99-2.098-3.515-4.36-3.515-2.655 0-4.162 1.526-4.72 3.515Zm15.138-6.599h3.41l.393 1.526.197.199.196-.2c.754-1.16 2.656-1.923 4.163-1.923 4.556 0 7.178 3.051 7.178 7.263v11.11h-3.769V14.525c-.098-2.454-1.278-3.814-3.77-3.814-2.228 0-4.096 1.824-4.162 4.046v10.878h-3.77V7.627h-.066Zm19.897 0V3.814L64.798 0h.721v7.66h3.835v3.416h-3.835v9.186c0 1.161.786 1.924 1.934 1.924l2.261-.398v3.449l-2.097.398c-3.77 0-5.835-1.924-5.835-5.373v-9.186h-3.441V7.627h3.474Zm10.198.001h3.408l.394 1.923.197.199.196-.2c1.148-1.525 2.656-2.287 4.163-2.287.755 0 1.147 0 1.902.398v3.415H80.01c-2.229 0-4.097 1.824-4.163 4.046v10.48H72.08V7.627h-.066ZM100 25.635h-3.409l-.393-1.526L96 23.91l-.197.2c-1.147 1.16-3.016 1.923-4.916 1.923-4.918 0-9.08-3.814-9.08-9.385 0-5.538 4.162-9.385 9.08-9.385 1.9 0 3.769.762 4.916 1.923l.197.2.197-.2.393-1.525H100v17.974ZM91.117 10.71c-3.606 0-5.54 2.687-5.54 5.937 0 3.25 1.934 5.936 5.54 5.936 3.212 0 5.474-2.687 5.474-5.936 0-3.284-2.262-5.937-5.474-5.937Z"></path></svg>