<?xml version="1.0" encoding="UTF-8"?>
<svg xmlns="http://www.w3.org/2000/svg" xmlns:xlink="http://www.w3.org/1999/xlink" id="Layer_1" viewBox="0 0 1422.58 1081.31">
  <defs>
    <style>.cls-1{fill:url(#linear-gradient);}.cls-2{fill:#0063e6;}</style>
    <linearGradient id="linear-gradient" x1="711.4" y1="1081.31" x2="711.4" y2="127.34" gradientUnits="userSpaceOnUse">
      <stop offset="0" stop-color="#bfdef8" stop-opacity="0"></stop>
      <stop offset="1" stop-color="#bfdef8"></stop>
    </linearGradient>
  </defs>
  <g id="Layer_2">
    <g>
      <path class="cls-1" d="M1407.43,127.34c-51.7,0-90.9,32.95-127.87,65.05-19.28,16.74-37.82,31.36-61.34,41.85-22.99,10.28-47.14,17.9-68.44,31.68-62.29,40.47-92.59,114.1-154.99,155.84-19.71,13.14-42.59,22.46-66.32,22.35-37.72-.11-66.11-10.7-102.13,6.99-29.77,14.62-54.35,39.09-73.63,65.79-31.15,43.12-54.98,113.68-110.71,130.41-62.72,18.86-75.32-50.85-96.51-90.37-13.24-24.68-31.57-45.45-59.43-53.5-94.5-27.44-115.26,99.37-166.86,146.62-36.44,33.37-88.46,37.4-135.61,32.74-26.59-2.65-52.12-9.85-79.03-6.36-31.99,4.13-63.88,18.65-89.31,38.46v366.42H1407.54V127.34h-.11Z"></path>
      <path class="cls-2" d="M16.53,716.48l-2.65-3.39c27.12-20.98,59.22-34.85,90.37-38.88,19.07-2.44,37.61,.42,55.62,3.18,7.84,1.17,15.89,2.44,23.94,3.28,59.96,5.93,103.82-4.56,134.02-32.21,16.32-14.94,29.35-37.61,43.12-61.76,14.51-25.21,29.45-51.28,48.95-68.65,22.25-19.81,47.46-25.32,76.91-16.74,25,7.2,44.81,25.11,60.7,54.56,4.24,7.84,8.05,16.74,12.08,26.17,8.05,18.86,16.42,38.35,29.03,51.28,13.98,14.51,31.36,18.43,52.97,11.87,39.94-11.97,62.93-51.7,85.07-90.26,8.26-14.2,16-27.65,24.47-39.41,22.25-30.72,47.25-53.08,74.48-66.43,26.49-13.03,49.26-11.02,73.42-8.9,9.43,.85,19.18,1.7,29.66,1.7,20.98,.11,43.44-7.52,65.15-22.04,30.72-20.55,54.03-49.37,76.49-77.34,22.99-28.5,46.83-57.95,78.5-78.61,15.04-9.75,31.68-16.53,47.78-22.99,6.89-2.75,13.98-5.72,20.87-8.79,22.35-9.96,40.47-23.84,60.81-41.53,35.38-30.72,75.54-65.58,129.25-65.58v4.24c-52.12,0-91.64,34.33-126.39,64.52-20.66,17.9-39.09,31.99-61.87,42.16-6.99,3.07-14.09,6.04-21.08,8.79-15.89,6.46-32.42,13.14-47.04,22.67-31.15,20.23-54.67,49.37-77.55,77.66-22.78,28.18-46.19,57.31-77.44,78.18-22.35,14.94-45.66,22.78-67.48,22.78-10.7,0-20.55-.95-30.09-1.7-24.58-2.12-45.77-4.03-71.19,8.48-26.59,13.03-51.06,34.96-72.89,65.15-8.37,11.55-16,24.9-24.15,38.99-21.61,37.4-46.08,79.77-87.61,92.17-7.52,2.22-14.41,3.28-20.55,3.28-36.87,0-52.55-36.34-66.53-68.86-4.03-9.32-7.73-18.12-11.87-25.85-15.26-28.39-34.33-45.55-58.16-52.55-62.72-18.22-92.38,33.48-120.99,83.38-13.98,24.37-27.23,47.36-43.97,62.72-31.04,28.5-75.96,39.3-137.3,33.27-8.16-.85-16.32-2.01-24.15-3.28-18.43-2.86-35.91-5.51-54.35-3.18-30.51,4.34-61.87,17.8-88.36,38.46Z"></path>
      <circle class="cls-2" cx="1407.43" cy="127.34" r="15.15"></circle>
      <circle class="cls-2" cx="15.15" cy="714.47" r="15.15"></circle>
    </g>
  </g>
</svg>
