<svg xmlns="http://www.w3.org/2000/svg" version="1.1" viewBox="0 0 2048 898">
<path transform="translate(0)" d="m0 0h2048v898h-2048z" fill="transparent" data-darkreader-inline-fill="" style="--darkreader-inline-fill: transparent;"/>
<path transform="translate(2015,6)" d="m0 0 10 2 7 5 5 9 1 8-3 9-5 6-12 6h-2v162l-1 685h-1978v-9l2-3-14-5-5-5-5-8v-11l4-8 7-6 4-2h12l8 4 3 2 14-9 27-14 24-9 25-7 25-4h35l40 5 29 4 26 2h45l26-3 24-5 21-7 20-9 18-11 13-11 8-7 9-10 12-16 14-22 13-22 15-26 12-20 20-30 13-16 12-13 10-9 14-10 17-8 13-4 12-2h23l21 4 18 6 17 9 13 10 10 9 11 12 12 17 11 19 12 25 12 28 11 23 12 19 12 14 11 9 13 6 12 3h20l17-4 16-6 18-10 11-9 10-9 13-13 13-17 18-27 12-20 15-26 15-25 10-15 14-19 11-13 7-8 12-13 12-11 13-11 18-13 21-12 16-7 17-5 17-3 10-1h21l56 4h23l19-3 17-5 16-6 19-10 14-9 16-12 13-11 12-11 17-17 7-8 9-10 9-11 12-14 8-10 27-33 10-11 9-11 9-9 7-8 10-10 8-7 13-11 19-14 19-11 16-8 25-11 29-12 24-11 16-9 18-12 17-13 11-9 14-12 11-9 10-9 14-11 15-12 21-14 15-9 17-9 21-8 18-5 16-3 6-12 8-6z" fill="#DBEFFE" data-darkreader-inline-fill="" style="--darkreader-inline-fill: #343739;"/>
<path transform="translate(2015,6)" d="m0 0 10 2 7 5 5 9 1 8-3 9-5 6-10 5h-8l-10-5-6-8-2-4-13 2-21 6-20 8-23 12-24 16-17 13-10 8-13 11-11 9-15 13-13 11-19 14-17 11-16 9-23 11-39 16-24 11-17 9-18 12-13 10-13 11-14 14h-2l-2 4-13 13-9 11-11 12-11 14-12 14-8 10-11 13-8 10-10 11-7 8-9 10-19 19-8 7-13 11-20 14-21 12-19 8-20 6-16 3-10 1h-17l-45-3-13-1h-25l-19 3-14 4-13 5-16 8-15 9-16 12-13 11-16 15-7 8-9 10-11 14-12 17-15 24-14 24-17 29-20 30-13 17-12 13-10 10-11 9-15 10-15 7-20 6-12 2h-15l-17-4-15-8-8-6v-2h-2l-7-8-9-12-9-15-9-17-12-27-11-25-11-21-8-12-11-14-16-16-13-9-16-8-14-5-19-4h-28l-17 4-16 7-14 9-11 9-11 11-9 11-12 16-15 24-9 15-14 24-16 27-13 20-12 16-11 12-10 10-17 13-22 12-20 8-21 6-22 4-30 3h-32l-35-3-51-7-9-1h-45l-25 5-33 11-24 11-21 12-3 2 1 6v9l-4 8-8 7-5 2h-8l-9-4-5-5-4-7v-11l4-8 7-6 4-2h12l8 4 3 2 14-9 27-14 24-9 25-7 25-4h35l40 5 29 4 26 2h45l26-3 24-5 21-7 20-9 18-11 13-11 8-7 9-10 12-16 14-22 13-22 15-26 12-20 20-30 13-16 12-13 10-9 14-10 17-8 13-4 12-2h23l21 4 18 6 17 9 13 10 10 9 11 12 12 17 11 19 12 25 12 28 11 23 12 19 12 14 11 9 13 6 12 3h20l17-4 16-6 18-10 11-9 10-9 13-13 13-17 18-27 12-20 15-26 15-25 10-15 14-19 11-13 7-8 12-13 12-11 13-11 18-13 21-12 16-7 17-5 17-3 10-1h21l56 4h23l19-3 17-5 16-6 19-10 14-9 16-12 13-11 12-11 17-17 7-8 9-10 9-11 12-14 8-10 27-33 10-11 9-11 9-9 7-8 10-10 8-7 13-11 19-14 19-11 16-8 25-11 29-12 24-11 16-9 18-12 17-13 11-9 14-12 11-9 10-9 14-11 15-12 21-14 15-9 17-9 21-8 18-5 16-3 6-12 8-6z" fill="#0168FC" data-darkreader-inline-fill="" style="--darkreader-inline-fill: #1464d9;"/>
<path transform="translate(108,825)" d="m0 0h5l-2 2-15 6h-2v-2z" fill="transparent" data-darkreader-inline-fill="" style="--darkreader-inline-fill: transparent;"/>
</svg>