<?xml version="1.0" encoding="UTF-8"?>
<!DOCTYPE svg PUBLIC "-//W3C//DTD SVG 1.1//EN" "http://www.w3.org/Graphics/SVG/1.1/DTD/svg11.dtd">
<svg xmlns="http://www.w3.org/2000/svg" version="1.1" width="530px" height="530px" style="shape-rendering:geometricPrecision; text-rendering:geometricPrecision; image-rendering:optimizeQuality; fill-rule:evenodd; clip-rule:evenodd" xmlns:xlink="http://www.w3.org/1999/xlink">
<g><path style="opacity:0.966" fill="#fe3b69" d="M 240.5,28.5 C 306.761,24.0934 366.261,41.7601 419,81.5C 420.567,86.5333 419.067,90.3667 414.5,93C 409.199,97.2998 404.199,101.966 399.5,107C 398.127,107.875 396.627,108.375 395,108.5C 376.987,96.4071 357.82,86.2404 337.5,78C 256.05,51.6906 182.717,66.0239 117.5,121C 82.4438,154.105 60.4438,194.439 51.5,242C 45.772,243.123 39.9387,243.623 34,243.5C 28.8333,243.333 23.6667,243.167 18.5,243C 17.5838,242.626 16.7504,242.126 16,241.5C 17.0071,221.8 21.3404,202.8 29,184.5C 61.1142,110.721 115.614,61.8876 192.5,38C 208.424,33.7148 224.424,30.5482 240.5,28.5 Z"/></g>
<g><path style="opacity:0.969" fill="#fe3b69" d="M 247.5,110.5 C 306.642,106.674 355.808,126.674 395,170.5C 413.772,193.883 425.939,220.383 431.5,250C 445.833,250.667 460.167,250.667 474.5,250C 470.714,211.586 456.547,177.419 432,147.5C 430.578,144.97 430.245,142.303 431,139.5C 437.864,132.302 445.03,125.468 452.5,119C 454.167,118.333 455.833,118.333 457.5,119C 500.552,169.831 519.385,228.664 514,295.5C 509.174,343.676 491.674,386.51 461.5,424C 457.793,424.996 454.459,424.33 451.5,422C 444.414,415.586 438.081,408.586 432.5,401C 445.783,382.609 456.616,362.776 465,341.5C 471.41,324.284 474.91,306.617 475.5,288.5C 461.178,287.334 446.845,287.167 432.5,288C 422.585,354.564 386.585,400.564 324.5,426C 274.563,443.1 226.23,439.433 179.5,415C 174.074,411.871 168.907,408.371 164,404.5C 163.333,402.5 163.333,400.5 164,398.5C 170.833,391.667 177.667,384.833 184.5,378C 186.833,377.333 189.167,377.333 191.5,378C 207.638,388.659 225.305,395.493 244.5,398.5C 246.425,398.41 247.592,397.41 248,395.5C 248.963,381.739 248.63,368.072 247,354.5C 209.985,345.152 187.651,321.819 180,284.5C 177.389,240.127 196.889,210.294 238.5,195C 261.784,188.551 284.118,190.885 305.5,202C 306.022,202.561 306.355,203.228 306.5,204C 298.846,212.988 290.512,221.321 281.5,229C 273.176,228.779 264.843,228.779 256.5,229C 227.276,236.221 214.776,254.721 219,284.5C 227.695,308.506 244.862,319.673 270.5,318C 295.211,313.422 308.544,298.589 310.5,273.5C 309.832,268.834 309.665,264.167 310,259.5C 318.167,251.333 326.333,243.167 334.5,235C 336.112,234.28 337.612,234.446 339,235.5C 354.397,267.943 351.064,298.276 329,326.5C 317.634,339.018 303.801,347.685 287.5,352.5C 286.334,367.155 286.167,381.822 287,396.5C 326.706,389.825 357.04,369.159 378,334.5C 401.709,288.761 399.375,244.428 371,201.5C 335.203,156.785 289.036,139.952 232.5,151C 181.449,165.384 149.283,198.217 136,249.5C 129.852,282.29 135.852,312.624 154,340.5C 154.667,342.167 154.667,343.833 154,345.5C 146.887,352.613 139.721,359.779 132.5,367C 129.044,368.123 126.21,367.29 124,364.5C 92.6147,316.317 87.2814,265.317 108,211.5C 136.34,152.747 182.84,119.08 247.5,110.5 Z"/></g>
<g><path style="opacity:0.968" fill="#fe3b69" d="M 16.5,287.5 C 27.505,287.333 38.505,287.5 49.5,288C 50,288.5 50.5,289 51,289.5C 65.0397,380.864 115.873,441.031 203.5,470C 274.283,488.066 339.45,476.233 399,434.5C 402.092,435.924 404.926,437.757 407.5,440C 412.348,445.015 417.348,449.848 422.5,454.5C 423.52,456.432 423.687,458.432 423,460.5C 376.49,497.005 323.49,515.005 264,514.5C 178.297,512.983 109.631,478.317 58,410.5C 33.5565,376.013 19.0565,337.679 14.5,295.5C 14.2893,292.514 14.956,289.847 16.5,287.5 Z"/></g>
</svg>
