<?xml version="1.0" encoding="utf-8"?>
<!-- Generator: Adobe Illustrator 26.0.3, SVG Export Plug-In . SVG Version: 6.00 Build 0)  -->
<svg version="1.0" id="katman_1" xmlns="http://www.w3.org/2000/svg" xmlns:xlink="http://www.w3.org/1999/xlink" x="0px" y="0px"
	 viewBox="0 0 800 600" style="enable-background:new 0 0 800 600;" xml:space="preserve">
<style type="text/css">
	.st0{clip-path:url(#SVGID_00000078006675101284336110000001894955447448838313_);}
	.st1{fill-rule:evenodd;clip-rule:evenodd;fill:#0A2562;}
	.st2{fill-rule:evenodd;clip-rule:evenodd;fill:#FF3C6A;}
</style>
<g>
	<defs>
		<rect id="SVGID_1_" x="60.8" y="249.5" width="678" height="100.1"/>
	</defs>
	<clipPath id="SVGID_00000050664113863517443900000013792997482514239668_">
		<use xlink:href="#SVGID_1_"  style="overflow:visible;"/>
	</clipPath>
	<g style="clip-path:url(#SVGID_00000050664113863517443900000013792997482514239668_);">
		<g>
			<path class="st1" d="M196.3,272.2c0-0.8,0.8-1.6,1.6-1.6h5.2c0.8,0,1.6,0.8,1.6,1.6v53.6c0,0.8-0.8,1.6-1.6,1.6h-5.2
				c-0.8,0-1.6-0.8-1.6-1.6V272.2z"/>
			<path class="st1" d="M227.8,271.2c0-0.8,0.8-1.3,1.6-1.3h2.1l34.4,40.6v-38.2c0-0.8,0.5-1.6,1.6-1.6h5c0.8,0,1.6,0.8,1.6,1.6
				v54.4c0,0.8-0.8,1.3-1.6,1.3h-2.1l-34.4-41.6v39.5c0,0.8-0.5,1.6-1.6,1.6h-5c-0.8,0-1.6-0.8-1.6-1.6V271.2z"/>
			<path class="st1" d="M304.7,278.1h-12.8c-0.8,0-1.6-0.8-1.6-1.6v-4.3c0-0.8,0.5-1.6,1.6-1.6h34.1c0.8,0,1.6,0.8,1.6,1.6v4.5
				c0,0.8-0.5,1.6-1.6,1.6h-12.8v47.5c0,0.8-0.8,1.6-1.6,1.6h-5.2c-0.8,0-1.6-0.8-1.6-1.6v-47.8H304.7z"/>
			<path class="st1" d="M343.8,272.2c0-0.8,0.5-1.6,1.6-1.6H367c9.4,0,17.2,7.7,17.2,17.3c0,7.5-5,13.6-11.7,16.5l10.9,20.5
				c0.5,1.1,0,2.4-1.3,2.4h-6.3c-0.5,0-1-0.5-1.3-0.8l-10.4-21.4h-12v20.6c0,0.8-0.8,1.6-1.6,1.6h-5.2c-0.8,0-1.6-0.8-1.6-1.6V272.2
				z M365.9,298.1c5.2,0,9.6-4.5,9.6-10.1c0-5.3-4.4-9.6-9.6-9.6h-14.1v19.7H365.9z"/>
			<path class="st1" d="M404.2,272.2c0-0.8,0.8-1.6,1.6-1.6h5.2c0.8,0,1.6,0.8,1.6,1.6v53.6c0,0.8-0.8,1.6-1.6,1.6h-5.2
				c-0.8,0-1.6-0.8-1.6-1.6V272.2z"/>
			<path class="st1" d="M460.3,269.8c8.1,0,13.8,2.7,19,7.5c0.8,0.5,0.8,1.6,0,2.4l-3.4,3.7c-0.5,0.8-1.3,0.8-2.1,0
				c-3.6-3.2-8.9-5.3-13.8-5.3c-11.2,0-19.8,9.6-19.8,21.1c0,11.5,8.6,21.1,20.1,21.1c5.7,0,9.9-2.4,13.6-5.3c0.8-0.5,1.3-0.5,1.8,0
				l3.7,3.7c0.5,0.5,0.5,1.6,0,2.1c-5.5,5.3-12.3,7.7-19.3,7.7c-15.9,0-28.7-12.8-28.7-29.1C431.6,282.9,444.4,269.8,460.3,269.8z"
				/>
			<path class="st1" d="M491.3,325.1l24.2-54.4c0.3-0.5,1-0.8,1.3-0.8h0.8c0.5,0,1,0.5,1.3,0.8l24.2,54.4c0.5,1.1-0.3,2.1-1.3,2.1
				h-4.9c-1,0-1.6-0.5-1.8-1.3l-4.9-11.2h-25.8c-1.6,3.7-3.1,7.5-4.9,11.2c-0.3,0.5-0.8,1.3-1.8,1.3h-4.9
				C491.3,327.2,490.8,326.1,491.3,325.1z M527,308l-9.6-22.2h-0.5l-9.6,22.2H527z"/>
			<path class="st1" d="M563.7,278.1h-13c-0.8,0-1.6-0.8-1.6-1.6v-4.3c0-0.8,0.5-1.6,1.6-1.6h34.1c0.8,0,1.6,0.8,1.6,1.6v4.5
				c0,0.8-0.5,1.6-1.6,1.6h-12.8v47.5c0,0.8-0.8,1.6-1.6,1.6h-5.2c-0.8,0-1.6-0.8-1.6-1.6V278.1z"/>
			<path class="st1" d="M602.8,272.2c0-0.8,0.5-1.6,1.6-1.6h31.5c0.8,0,1.6,0.8,1.6,1.6v4.5c0,0.8-0.5,1.6-1.6,1.6h-25v16.5H632
				c0.8,0,1.6,0.8,1.6,1.6v4.5c0,0.8-0.8,1.6-1.6,1.6h-21.1V320h25c0.8,0,1.6,0.8,1.6,1.6v4.5c0,0.8-0.5,1.6-1.6,1.6h-31.5
				c-0.8,0-1.6-0.8-1.6-1.6V272.2z"/>
			<path class="st1" d="M657.3,272.2c0-0.8,0.5-1.6,1.6-1.6h5.2c0.8,0,1.6,0.8,1.6,1.6V320H687c0.8,0,1.6,0.8,1.6,1.6v4.5
				c0,0.8-0.5,1.6-1.6,1.6h-28.1c-0.8,0-1.6-0.8-1.6-1.6L657.3,272.2L657.3,272.2z"/>
			<path class="st1" d="M711.5,300L693,273c-0.5-1.1,0-2.4,1.3-2.4h5.7c0.5,0,1,0.5,1.3,0.8l14.3,20.6l14.3-20.6
				c0.3-0.3,0.8-0.8,1.3-0.8h6c1.3,0,1.8,1.3,1.3,2.4l-18.8,27v25.9c0,0.8-0.8,1.6-1.6,1.6h-5.2c-0.8,0-1.6-0.8-1.6-1.6L711.5,300z"
				/>
		</g>
		<path class="st2" d="M144.7,329.1c0.5,0.5,1,0.3,1.3,0c6.3-8.3,10.2-18.7,10.2-30.2c0-11.7-3.9-22.4-10.7-30.7
			c-0.3-0.5-1-0.5-1.3,0l-3.6,3.7c-0.3,0.3-0.3,0.8,0,1.3c4.4,5.9,7.6,12.8,8.3,20.6c0,0.3-0.3,0.5-0.5,0.5h-7.8
			c-0.3,0-0.5-0.3-0.5-0.5c-2.6-16.5-17.2-29.1-34.4-27.8c-15.6,1.6-28.1,14.4-29.2,30.4c-0.5,7.7,1.6,14.9,5.5,21.1
			c0.3,0.5,1,0.5,1.6,0l3.6-3.7c0.3-0.3,0.3-0.8,0-1.1c-2.9-4.5-4.4-10.4-3.6-16.3c1.3-12.3,11.5-22.2,23.5-22.7
			c14.3-0.8,26.3,10.9,26.3,25.6c0,12.5-8.6,22.7-20.1,25.1c-0.3,0-0.8-0.3-0.8-0.5v-8.3c0-0.3,0.3-0.5,0.3-0.5
			c6.8-1.9,11.5-8.3,11.5-15.7c0-2.7-0.5-5.3-1.8-7.5c-0.3-0.3-0.5-0.3-0.8,0l-4.4,4.5c-0.3,0.3-0.5,0.8-0.3,1.3
			c0.3,1.6,0.3,3.2-0.3,4.8c-1,2.9-3.4,5.1-6.3,5.9c-6.8,1.6-12.8-4.5-10.9-11.2c0.8-2.9,3.1-5.6,6-6.4c1.6-0.5,3.4-0.5,5,0
			c0.5,0,1,0,1.3-0.3l4.4-4.5c0.3-0.3,0.3-0.5,0-0.8c-2.9-1.6-6.5-2.4-10.2-1.9c-6.8,1.1-12.2,6.7-13.3,13.6
			c-1.3,9.1,4.4,16.8,12.5,18.7c0.3,0,0.5,0.3,0.5,0.5v8.3c0,0.3-0.3,0.5-0.5,0.5c-3.9-0.5-7.3-1.9-10.4-4c-0.3-0.3-0.8-0.3-1.3,0
			l-3.9,2.9c-0.5,0.5-0.3,1.1,0,1.6c5.2,4,11.7,6.1,18.8,6.1c16.7,0,30.2-13.1,31.8-29.6c0-0.3,0.3-0.5,0.5-0.5h7.6
			c0.3,0,0.5,0.3,0.5,0.5c-0.5,8-3.6,15.7-8.1,21.9c-0.3,0.3-0.3,0.8,0,1.3L144.7,329.1z"/>
		<path class="st2" d="M108.4,256.7c9.1,0,17.7,3.2,24.5,8.5c0.3,0.3,0.8,0.3,1,0l3.6-3.7c0.5-0.5,0.3-1.1,0-1.3
			c-8.1-6.4-18.2-10.7-29.2-10.7c-24.2,0-44.3,18.9-47.4,42.2c0,0.5,0.3,1.1,1,1.1h5.2c0.5,0,0.8-0.3,1-0.8
			C70.9,272.2,87.9,256.7,108.4,256.7z"/>
		<path class="st2" d="M134.8,331.7c-0.3-0.3-0.8-0.3-1.3,0c-7,5.6-15.6,8.5-25.3,8.5c-21.1,0-38.3-16.3-40.7-37.6
			c0-0.5-0.5-0.8-1-0.8h-5.2c0,0-0.5,0.5-0.5,1.1c2.3,25.1,22.7,44.6,47.7,44.6c11.5,0,21.9-4,30-10.7c0.5-0.3,0.5-1.1,0-1.3
			L134.8,331.7z"/>
	</g>
</g>
</svg>
