<svg xml:space="preserve" style="max-height: 500px" viewBox="70.76461769115441 210 657.2713643178412 176.39999999999998" y="0px" x="0px" xmlns:xlink="http://www.w3.org/1999/xlink" xmlns="http://www.w3.org/2000/svg" id="katman_1" version="1.0" width="657.2713643178412" height="176.39999999999998">
<style type="text/css">
	.st0{fill:#344FFF;}
	.st1{fill:#A6A5A5;}
</style><style class="darkreader darkreader--sync" media="screen"/>
<g id="Layer_1-2">
	<path d="M331.1,375.2l-3.2-7.3h-15.8l-3.1,7.3h-4.3l13.3-29.9h4.3l13.2,29.9H331.1z M313.8,364.2h12.6l-6.3-14.5&#10;&#9;&#9;L313.8,364.2z" class="st0"/>
	<path d="M374.7,348c2,1.8,3.1,4.2,3.1,7.4c0,3.3-1,5.9-3.1,7.8s-4.9,2.8-8.6,2.8h-7.4v9.3h-4.1v-29.9h11.5&#10;&#9;&#9;C369.8,345.3,372.7,346.2,374.7,348z M371.8,360.5c1.4-1.1,2.1-2.8,2.1-5c0-2.1-0.7-3.8-2.1-4.8c-1.4-1.1-3.3-1.6-5.9-1.6l-7.3,0&#10;&#9;&#9;v13.1h7.3C368.5,362.2,370.4,361.6,371.8,360.5z" class="st0"/>
	<path d="M401.5,355.6c1.8,2.1,2.7,4.9,2.7,8.6c0,0.6,0,1,0,1.3h-17.9c0.2,1.9,1.1,3.6,2.5,4.8c1.4,1.2,3.2,1.9,5.1,1.8&#10;&#9;&#9;c1.3,0,2.6-0.2,3.7-0.7c1.1-0.5,2.2-1.2,3-2.1l2.2,2.3c-1.1,1.2-2.5,2.2-4,2.8c-1.7,0.7-3.4,1-5.2,1c-2.1,0-4.1-0.4-5.9-1.4&#10;&#9;&#9;c-1.7-0.9-3.1-2.3-4-4c-1-1.8-1.5-3.9-1.4-5.9c0-2.1,0.4-4.1,1.4-5.9c0.9-1.7,2.3-3.1,4-4.1c1.8-1,3.8-1.5,5.9-1.5&#10;&#9;&#9;C397.1,352.5,399.7,353.5,401.5,355.6z M400.6,362.4c-0.1-2.1-0.8-3.7-2.1-4.8s-2.9-1.8-5-1.8c-1.8-0.1-3.6,0.6-5,1.8&#10;&#9;&#9;c-1.4,1.3-2.2,3-2.4,4.8H400.6z" class="st0"/>
	<path d="M418.5,353.8c1.5-0.9,3.2-1.3,4.9-1.3v3.8c-2.3-0.1-4.2,0.5-5.6,1.8s-2.2,3-2.4,5.2v11.9h-4v-22.6h4v4.9&#10;&#9;&#9;C416,356,417.1,354.7,418.5,353.8z" class="st0"/>
	<path d="M433.1,344.3c0.9,1,0.9,2.6,0,3.7c-1,1-2.6,1-3.5,0c-0.9-1-0.9-2.6,0-3.7C430.5,343.4,432.1,343.4,433.1,344.3&#10;&#9;&#9;z M429.4,352.6h4v22.6h-4V352.6z" class="st0"/>
	<path d="M458.2,353.9c1.7,0.9,3.1,2.3,4.1,4c1,1.8,1.5,3.8,1.5,5.9c0,2.1-0.5,4.1-1.5,5.9c-1,1.7-2.4,3.1-4.1,4.1&#10;&#9;&#9;c-3.8,1.9-8.3,1.9-12,0c-1.7-0.9-3.1-2.3-4.1-4c-2-3.7-2-8.2,0-11.9c1-1.7,2.4-3.1,4.1-4C449.9,352,454.4,352,458.2,353.9&#10;&#9;&#9;L458.2,353.9z M448.2,357c-1.1,0.7-2.1,1.7-2.7,2.8c-0.7,1.3-1,2.7-1,4.1c0,1.5,0.3,2.9,1,4.2c0.6,1.2,1.5,2.2,2.7,2.8&#10;&#9;&#9;c1.2,0.7,2.6,1,4,1c1.4,0,2.7-0.3,3.9-1c1.2-0.7,2.1-1.7,2.7-2.8c0.7-1.3,1-2.7,1-4.2c0-1.4-0.3-2.8-1-4.1&#10;&#9;&#9;c-0.6-1.2-1.5-2.2-2.7-2.8c-1.2-0.7-2.5-1-3.9-1C450.8,355.9,449.4,356.3,448.2,357z" class="st0"/>
	<path d="M489.8,354.8c1.5,1.6,2.3,3.7,2.3,6.4v14h-4v-12.9c0-1.9-0.5-3.4-1.6-4.5c-1.1-1.1-2.5-1.6-4.4-1.6&#10;&#9;&#9;c-1.8,0-3.6,0.7-4.9,1.9c-1.3,1.3-2.1,3.1-2.2,4.9v12.1h-4v-22.6h4v4.8c1.5-3.2,4.4-4.9,8.6-4.9&#10;&#9;&#9;C486.2,352.5,488.3,353.3,489.8,354.8z" class="st0"/>
	<path d="M531.8,349.7c-5.4-2.4-11.7-0.4-14.6,4.7c-2,3.6-2,8,0,11.6c2.1,3.6,5.9,5.8,10,5.7c1.6,0,3.2-0.3,4.6-1&#10;&#9;&#9;c1.5-0.6,2.8-1.5,4-2.6l2.5,2.7c-1.5,1.5-3.3,2.7-5.3,3.5c-4.5,1.9-9.6,1.6-13.9-0.8c-4.8-2.7-7.7-7.8-7.6-13.3&#10;&#9;&#9;c0-2.7,0.7-5.3,2.1-7.7c1.4-2.3,3.3-4.2,5.7-5.5c4.3-2.3,9.4-2.7,13.9-0.8c1.9,0.7,3.6,1.9,5,3.3l-2.4,2.9&#10;&#9;&#9;C534.6,351.3,533.3,350.4,531.8,349.7z" class="st0"/>
	<path d="M560,353.9c1.7,0.9,3.1,2.3,4.1,4c1,1.8,1.5,3.8,1.5,5.9c0,2.1-0.5,4.1-1.5,5.9c-1,1.7-2.4,3.1-4.1,4.1&#10;&#9;&#9;c-3.8,1.9-8.3,1.9-12,0c-1.7-0.9-3.1-2.3-4.1-4c-2-3.7-2-8.2,0-11.9c1-1.7,2.4-3.1,4.1-4C551.8,352,556.2,352,560,353.9L560,353.9z&#10;&#9;&#9; M550.1,357c-1.1,0.7-2.1,1.7-2.7,2.8c-0.7,1.3-1,2.7-1,4.1c0,1.5,0.3,2.9,1,4.2c0.6,1.2,1.5,2.2,2.7,2.8c2.4,1.3,5.4,1.3,7.9,0&#10;&#9;&#9;c1.2-0.7,2.1-1.7,2.7-2.8c0.7-1.3,1-2.7,1-4.2c0-1.4-0.3-2.8-1-4.1c-0.6-1.2-1.5-2.2-2.7-2.8C555.5,355.6,552.5,355.6,550.1,357z" class="st0"/>
	<path d="M608.1,354.8c1.5,1.6,2.2,3.7,2.2,6.4v14h-4v-12.9c0-1.9-0.5-3.4-1.6-4.5c-1-1.1-2.5-1.6-4.3-1.6&#10;&#9;&#9;c-2.1,0.1-3.8,0.8-5,2.3c-1.2,1.5-1.8,3.3-1.8,5.6v11.1h-4v-12.9c0-1.9-0.5-3.4-1.6-4.5c-1-1.1-2.5-1.6-4.3-1.6&#10;&#9;&#9;c-2.1,0.1-3.8,0.8-5,2.3c-1.2,1.5-1.8,3.3-1.9,5.6v11.1h-4v-22.6h4v4.7c1.5-3.2,4.3-4.8,8.4-4.9c2.1,0,3.8,0.5,5.2,1.5&#10;&#9;&#9;c1.4,1,2.4,2.5,2.8,4.2c1.4-3.7,4.3-5.6,8.8-5.7C604.6,352.5,606.7,353.3,608.1,354.8z" class="st0"/>
	<path d="M637.3,353.9c1.6,1,3,2.4,3.8,4.1c1.8,3.8,1.8,8.1,0,11.9c-0.9,1.7-2.2,3.1-3.8,4c-1.7,1-3.7,1.5-5.6,1.4&#10;&#9;&#9;c-1.8,0-3.5-0.4-5-1.2c-1.4-0.8-2.6-2-3.4-3.4v12.8h-4v-30.9h4v4.5c0.8-1.4,2-2.6,3.4-3.4c1.5-0.8,3.2-1.2,5-1.2&#10;&#9;&#9;C633.7,352.5,635.6,353,637.3,353.9z M634.9,370.9c1.2-0.7,2.1-1.7,2.7-2.9c0.7-1.3,1-2.7,1-4.1c0-1.4-0.3-2.8-1-4.1&#10;&#9;&#9;c-0.6-1.2-1.5-2.2-2.7-2.9c-1.2-0.7-2.5-1-3.9-1c-1.4,0-2.7,0.3-3.9,1c-1.2,0.7-2.1,1.7-2.7,2.9c-1.3,2.6-1.3,5.7,0,8.3&#10;&#9;&#9;c0.6,1.2,1.6,2.2,2.7,2.8C629.5,372.2,632.4,372.2,634.9,370.9L634.9,370.9z" class="st0"/>
	<path d="M663.6,375.2V372c-1.7,2.2-4.3,3.3-7.9,3.3c-1.4,0-2.8-0.3-4.1-0.9c-1.1-0.6-2.1-1.4-2.7-2.5&#10;&#9;&#9;c-0.6-1.1-1-2.3-1-3.5c-0.1-1.9,0.8-3.7,2.2-4.8c1.5-1.2,3.6-1.8,6.3-1.8h7.2v-1.1c0-1.6-0.5-2.8-1.5-3.7c-1-0.9-2.4-1.3-4.3-1.3&#10;&#9;&#9;c-2.3,0-4.6,0.8-7,2.4l-1.7-2.7c1.4-0.9,2.9-1.7,4.5-2.3c1.6-0.5,3.3-0.7,4.9-0.7c2.8,0,5,0.7,6.5,2.1c1.5,1.4,2.3,3.3,2.3,5.8&#10;&#9;&#9;l0,14.9L663.6,375.2z M661.2,370.7c1.2-0.8,2.1-2.1,2.3-3.6v-2.3H657c-1.8,0-3.1,0.3-4,0.8c-0.9,0.5-1.4,1.5-1.3,2.6&#10;&#9;&#9;c0,1.1,0.5,2.1,1.3,2.8c0.9,0.7,2.1,1,3.5,1C658.2,372.1,659.9,371.7,661.2,370.7L661.2,370.7z" class="st0"/>
	<path d="M695.1,354.8c1.5,1.6,2.3,3.7,2.3,6.4v14h-4v-12.9c0-1.9-0.5-3.4-1.6-4.5s-2.5-1.6-4.4-1.6&#10;&#9;&#9;c-1.8,0-3.6,0.7-4.9,1.9c-1.3,1.3-2.1,3.1-2.2,4.9v12.1h-4v-22.6h4v4.8c1.5-3.2,4.4-4.9,8.6-4.9&#10;&#9;&#9;C691.5,352.5,693.6,353.3,695.1,354.8z" class="st0"/>
	<path d="M710.4,382.3c-1.2,0.9-2.7,1.4-4.2,1.3c-0.9,0-1.8-0.1-2.6-0.4c-0.8-0.3-1.6-0.8-2.3-1.3l1.7-3.1&#10;&#9;&#9;c0.9,0.7,1.9,1,3,1.1c1.7,0,3-1,3.8-2.9l0.9-2l-9.4-22.3h4.2l7.2,18.1l6.8-18.1h4.1l-10.3,25.8C712.7,380,711.7,381.3,710.4,382.3z" class="st0"/>
	<polygon points="132.2,249.4 132.2,270.7 176,270.7 176,315.3 197.3,315.3 197.3,249.4" class="st0"/>
	<polygon points="155,315.3 155,330.9 97.1,330.9 97.1,291.8 132.2,291.8 132.2,270.7 76,270.7 76,352 176,352 &#10;&#9;&#9;176,315.3" class="st1"/>
	<polygon points="241.2,248.9 261.9,249 277.4,294.2 293.5,249.2 314,249.3 289,314.7 265.7,314.7" class="st0"/>
	<path d="M322.5,249.3l18.7,0.1l-0.3,65.3l-18.7-0.1L322.5,249.3z M320.1,226.9c0-6.9,5.1-11.5,11.8-11.4&#10;&#9;&#9;s11.7,4.6,11.7,11.5c0,6.8-5.1,11.5-11.8,11.4S320,233.8,320.1,226.9" class="st0"/>
	<path d="M401.7,272.1c-3.5-4.3-8.4-7.1-13.9-7.1c-9.1,0-15.8,6.6-15.8,17c-0.1,10.8,6.6,17.3,15.7,17.3&#10;&#9;&#9;c5.5,0,10.4-2.8,13.9-7L401.7,272.1z M420.7,216.2l-0.5,98.9l-18.7-0.1l0-4.9c-5.1,4.4-11.6,6.9-18.3,6.9&#10;&#9;&#9;c-18.8-0.1-30.6-15.9-30.5-35c0.1-18.8,12-34.5,30.9-34.4c7.7,0,13.6,2.6,18.2,6.9l0.2-38.2L420.7,216.2z" class="st0"/>
	<path d="M474.7,297.8l0-7.9c-2.3-1.9-6.8-3.9-11.9-3.9c-5.7,0-10.4,2.8-10.5,7.8c0,5.5,4.6,8.6,10.4,8.6&#10;&#9;&#9;C467.2,302.4,471.4,300.8,474.7,297.8 M434.1,294.3c0.1-13.2,11.2-20.6,24.4-20.6c7.2,0,12.3,1.9,16.3,4.1v-4.5&#10;&#9;&#9;c0-4.9-3.4-9.5-12.4-9.5c-9.6,0-18.2,3.7-24.5,7.6l0.1-18.3c8.2-3.8,17.2-5.7,26.2-5.8c19.1,0.1,29.3,11.1,29.3,23.6l-0.2,43.9&#10;&#9;&#9;l-17.4-0.1v-4.3c-3.9,3.3-10.4,6.2-18.6,6.2C443.9,316.7,434.1,308.6,434.1,294.3" class="st0"/>
	<polygon points="507.4,299.3 540.3,265.4 508.1,265.3 508.1,249.7 565.2,249.9 565.1,265.2 532.2,299.1 565.6,299.2 &#10;&#9;&#9;565.5,315.2 507.3,315" class="st0"/>
	<path d="M623.3,282.4c0.1-10.5-7.1-17.1-16.2-17.2c-8.9,0-16.2,6.5-16.2,17c-0.1,10.8,7.1,17.3,16.1,17.3&#10;&#9;&#9;C616,299.6,623.2,293.2,623.3,282.4 M571.5,282.2c0.1-19.5,14.6-34.5,35.7-34.4c21.1,0.1,35.6,15.3,35.5,34.8&#10;&#9;&#9;c-0.1,19.6-14.7,34.8-35.8,34.7S571.4,301.8,571.5,282.2" class="st0"/>
	<path d="M703.8,282.8c0.1-10.5-7.1-17.1-16.2-17.2c-8.9,0-16.2,6.5-16.2,17c-0.1,10.8,7.1,17.3,16.1,17.3&#10;&#9;&#9;C696.6,300,703.8,293.6,703.8,282.8 M652,282.5c0.1-19.5,14.6-34.5,35.7-34.4c21.1,0.1,35.6,15.3,35.5,34.8&#10;&#9;&#9;c-0.1,19.6-14.7,34.8-35.8,34.7S651.9,302.2,652,282.5" class="st0"/>
</g>
</svg>