<svg xmlns="http://www.w3.org/2000/svg" fill="none" viewBox="57.24 101.85365853658537 407.04 407.4146341463415" style="max-height: 500px" width="407.04" height="407.4146341463415">
<path fill="#FACC2B" d="M637.578 488.71H645.241L808.366 113.196H733.92L671.516 256.614C657.284 288.91 643.052 340.913 643.052 340.913C643.052 340.913 628.272 288.363 614.04 256.614L549.994 113.196H467.885L637.578 488.71ZM885.121 490.352C917.417 490.352 944.24 475.025 958.472 447.108L956.83 485.426H1030.73V252.234H956.83V377.041C956.83 406.601 940.408 423.57 910.849 423.57C884.574 423.57 871.983 408.243 871.983 381.968V252.234H798.085V386.894C798.085 453.129 834.213 490.352 885.121 490.352ZM1174.32 490.352C1206.62 490.352 1233.44 475.025 1247.67 447.108L1246.03 485.426H1319.93V252.234H1246.03V377.041C1246.03 406.601 1229.61 423.57 1200.05 423.57C1173.77 423.57 1161.18 408.243 1161.18 381.968V252.234H1087.29V386.894C1087.29 453.129 1123.41 490.352 1174.32 490.352ZM1452.03 418.096L1471.73 397.295L1529.76 485.426H1615.7L1524.28 347.482L1606.94 252.234H1524.83L1448.2 342.008C1450.39 327.228 1452.03 309.164 1452.03 291.647V90.2049H1378.13V485.426H1452.03V418.096ZM1650.26 485.426H1723.61V90.2049H1650.26V485.426ZM1850.66 391.273H2027.47C2032.94 309.711 1987.51 247.308 1903.76 247.308C1831.5 247.308 1775.12 297.668 1775.12 368.283C1775.12 439.992 1828.77 490.352 1911.97 490.352C1960.69 490.352 1989.15 475.573 2011.6 455.866L1969.45 410.432C1957.95 418.643 1937.7 429.044 1910.87 429.044C1877.48 429.044 1857.78 415.359 1850.66 391.273ZM1849.57 348.576C1855.59 320.659 1875.29 307.522 1904.31 307.522C1933.32 307.522 1949.74 322.849 1953.02 348.576H1849.57Z" data-darkreader-inline-fill="" style="--darkreader-inline-fill: #bd9817;"/>
<path fill="#FACC2B" d="M232.925 170.957C139.519 170.957 63.7964 238.845 63.7964 322.59C63.7964 353.453 74.1065 382.144 91.7702 406.092C89.4498 433.762 82.7726 472.736 63.7964 491.719C63.7964 491.719 121.78 483.58 161.059 459.862C182.876 469.056 207.224 474.224 232.925 474.224C326.331 474.224 402.053 406.336 402.053 322.59C402.053 238.845 326.331 170.957 232.925 170.957Z" data-darkreader-inline-fill="" style="--darkreader-inline-fill: #bd9817;"/>
<path fill="#4885ED" d="M232.925 170.957C139.519 170.957 63.7964 238.845 63.7964 322.59C63.7964 353.453 74.1065 382.144 91.7702 406.092C89.4498 433.762 82.7726 472.736 63.7964 491.719C63.7964 491.719 121.78 483.58 161.059 459.862C182.876 469.056 207.224 474.224 232.925 474.224C326.331 474.224 402.053 406.336 402.053 322.59C402.053 238.845 326.331 170.957 232.925 170.957Z" data-darkreader-inline-fill="" style="--darkreader-inline-fill: #2669da;"/>
<path fill="white" d="M232.905 430.875H236.89L321.716 235.605H283.004L250.554 310.183C243.153 326.978 235.752 354.019 235.752 354.019C235.752 354.019 228.066 326.693 220.665 310.183L187.361 235.605H144.664L232.905 430.875Z" data-darkreader-inline-fill="" style="--darkreader-inline-fill: #323436;"/>
<path fill="#FACC2B" d="M456.174 264.504C456.174 180.759 380.452 112.87 287.046 112.87C219.597 112.87 161.383 148.279 134.228 199.491C162.012 181.557 196.075 170.956 232.925 170.956C326.331 170.956 402.053 238.844 402.053 322.59C402.053 354.623 390.945 384.315 372.036 408.798C409.914 427.097 456.174 433.633 456.174 433.633C437.198 414.656 430.521 375.682 428.2 348.006C445.864 324.058 456.174 295.367 456.174 264.504Z" data-darkreader-inline-fill="" style="--darkreader-inline-fill: #bd9817;"/>
</svg>