<svg width="178" height="50" viewBox="0 0 178 50" fill="none" xmlns="http://www.w3.org/2000/svg">
<path d="M45.2897 0.402588L30.2994 34.8151H30.0493L28.4598 20.5805L20.6162 38.1697L21.1698 42.2878H37.0296L55.7071 0.402588H45.2897Z" fill="#F55800"/>
<path d="M28.4578 20.5811H28.4595L37.4565 0.405029H27.0391L12.0488 34.8175H11.7987L10.1665 20.5829H0L2.9192 42.2902H18.779L20.616 38.1704L18.2503 20.5811H28.4578Z" fill="#FFA450"/>
<path d="M28.4602 20.5803H18.251L20.6166 38.1696L28.4255 20.6569L28.4602 20.5803Z" fill="#C63D22"/>
<path d="M69.3445 20.5903L59.0009 42.2977H52.7023L51.4092 28.9387L45.4444 42.2977H39.4378L36.5186 20.5903H42.1914L43.7347 34.8258H43.9848L50.1578 20.5903H55.6634L56.9565 34.8258H57.2066L63.5052 20.5903H69.3445Z" fill="white"/>
<path d="M72.1378 11.7405H77.9771L75.9755 22.9705C77.6024 21.1337 79.8541 20.1735 82.4823 20.1735C86.6119 20.1735 89.4474 22.5527 89.4474 26.6859C89.4474 27.9384 89.1973 29.4411 88.9472 30.7773L86.8619 42.2994H81.1473L83.1489 30.9029C83.2744 30.1519 83.4826 29.2745 83.4826 28.3143C83.4826 26.4775 82.7733 24.8491 80.146 24.8491C77.185 24.8491 75.308 26.8944 74.8069 29.7333L72.5961 42.2985H66.7568L72.1378 11.7405Z" fill="white"/>
<path d="M106.069 42.2984L106.443 40.2203C105.28 41.8156 102.9 42.7162 100.147 42.7162C94.0576 42.7162 90.2617 38.3327 90.2617 32.1961C90.2617 25.4334 94.9333 20.1733 101.982 20.1733C105.986 20.1733 108.155 21.8845 109.281 23.8469L109.861 20.5911H115.038L112.035 37.6236L111.269 42.2993H106.069V42.2984ZM108.154 30.7344C108.154 27.3111 106.194 24.7225 102.44 24.7225C97.8944 24.7225 95.8919 28.4798 95.8919 32.1115C95.8919 35.7851 97.9771 38.1643 101.481 38.1643C105.861 38.1652 108.154 34.4498 108.154 30.7344Z" fill="white"/>
<path d="M125.839 14.3281L124.713 20.5903H130.302L129.593 24.8482H124.003L122.126 35.5767C121.834 37.2469 122.252 38.29 124.045 38.29C124.879 38.29 126.279 38.0085 127.239 37.6745L126.52 41.7997C125.728 42.1756 124.545 42.7145 121.793 42.7145C116.371 42.7145 115.745 39.1656 116.495 34.8668L118.247 24.8482H115.202L116.007 20.5903H119.039L121.082 14.3281H125.839Z" fill="white"/>
<path d="M155.017 20.5904L151.18 42.2977H145.466L148.509 24.8955L145.938 24.8376L146.717 20.5895H155.017V20.5904ZM152.305 11.3228C154.057 11.3228 155.476 12.7427 155.476 14.4957C155.476 16.2487 154.058 17.6686 152.305 17.6686C150.554 17.6686 149.135 16.2496 149.135 14.4957C149.136 12.7427 150.554 11.3228 152.305 11.3228Z" fill="white"/>
<path d="M162.359 31.0685L156.686 20.5903H162.901L166.196 27.2694L171.201 20.5903H178L168.908 31.4863L174.497 42.2986H168.408L164.987 35.2436L159.648 42.2986H152.808L162.359 31.0685Z" fill="white"/>
<path d="M129.446 45.0119C131.115 44.8035 131.657 43.8432 131.907 42.507L134.952 24.8483H131.615L132.199 20.5904H135.744L136.078 18.6699C136.703 15.2885 138.163 11.3228 143.544 11.3228C145.443 11.3228 146.986 11.7646 146.986 11.7646L146.282 15.8185C145.543 15.725 145.212 15.6644 144.502 15.6644C142.375 15.6644 142.125 16.8331 141.833 18.4196L141.458 20.5904H145.42L144.669 24.8483H140.706L137.536 42.6736C136.744 47.2237 135.137 49.7998 128.652 49.4337L129.446 45.0119Z" fill="white"/>
</svg>
