<?xml version="1.0" encoding="utf-8"?>
<!-- Generator: Adobe Illustrator 19.0.0, SVG Export Plug-In . SVG Version: 6.00 Build 0)  -->
<svg version="1.1" id="layer" xmlns="http://www.w3.org/2000/svg" xmlns:xlink="http://www.w3.org/1999/xlink" x="0px" y="0px"
	 viewBox="-153 -46 652 652" style="enable-background:new -153 -46 652 652;" xml:space="preserve">
<style type="text/css">
	.st0{fill:#286EF1;}
</style>
<path class="st0" d="M-76.6,321c-25.9,0-46.9-20.8-46.9-46.4s21-46.4,46.9-46.4c25.9,0,46.9,20.8,46.9,46.4S-50.7,321-76.6,321
	 M-76.6,219.9c-30.5,0-55.2,24.5-55.2,54.6c0,30.2,24.7,54.6,55.2,54.6c30.5,0,55.2-24.5,55.2-54.6
	C-21.4,244.3-46.1,219.9-76.6,219.9 M-48.7,283.5v-39.3l-6.4,4.9v34.4h0c0,2-1.5,3.6-3.3,3.6c-1.8,0-3.3-1.6-3.3-3.6l0-18.2
	c0-5.9-4.3-10.8-9.7-10.8c-5.3,0-9.7,4.8-9.7,10.8v18.2c0,2-1.5,3.6-3.3,3.6s-3.3-1.6-3.3-3.6l0-18.2c0-5.9-4.3-10.8-9.7-10.8
	c-5.3,0-9.7,4.8-9.7,10.8h0v39.3l6.4-4.9l0-34.4c0-2,1.5-3.6,3.3-3.6c1.8,0,3.3,1.6,3.3,3.6l0,18.2c0,5.9,4.3,10.8,9.7,10.8
	c5.3,0,9.7-4.8,9.7-10.8h0l0-18.2c0-2,1.5-3.6,3.3-3.6c1.8,0,3.3,1.6,3.3,3.6l0,18.2c0,5.9,4.3,10.8,9.7,10.8
	S-48.7,289.5-48.7,283.5L-48.7,283.5L-48.7,283.5z M69.8,244.2l-7.3,30.3c-0.6,2.4-1.2,5.1-1.7,7.6c-0.5,2.6-1,4.8-1.4,6.4l-0.5,2.2
	l-0.5-2.1c-0.4-1.6-0.9-3.6-1.5-6.1c-0.6-2.5-1.2-5.4-1.9-7.8l-8.4-30.5h-9.1l-8.3,30.4c-0.6,2.4-1.3,5.2-1.9,7.7l-2.1,8.6l-1.8-8.5
	c-0.6-2.6-1.2-5.5-1.8-7.9l-7.3-30.3H3l17,61.9h9.7l8.3-30.8c0.6-2.4,1.3-4.8,1.9-7.3c0.6-2.5,1.1-4.5,1.4-6l0.5-2.5l0.6,2.6
	c0.3,1.5,0.8,3.5,1.4,6c0.6,2.5,1.2,4.8,1.9,7.1l8.4,30.9h9.7l17.2-61.9H69.8L69.8,244.2z M226.4,250.6c-3.4-4.5-8.5-6.8-15.7-6.8
	c-2.4,0-4.5,0.2-6.3,0.7c-1.8,0.4-3.5,1-4.9,1.8c-1.5,0.8-2.8,1.7-4,2.8c-1.2,1.1-2.4,2.4-3.5,3.8l-0.5,0.7l-0.4-0.7
	c-1.6-2.9-3.8-5.2-6.4-6.7c-2.7-1.5-6.1-2.3-10.3-2.3c-3.2,0-6,0.6-8.5,1.9c-2.5,1.2-4.5,3-6,5.2l-1.1,1.1l0.1-7.7H146v61.9h11.3
	v-35.5c0-5.2,1.8-9.2,3.8-12.1c2.1-2.9,5.7-4.4,10-4.4c4.2,0,6.6,1.3,8.7,4c2.1,2.6,2.3,7.2,2.3,13.6v34.3H193v-35.5
	c0-5.2,2.3-9.2,4.3-12.1c2-2.9,6.1-4.4,10.5-4.4c4.2,0,6.9,1.3,9,4c2.1,2.6,2.6,7.2,2.6,13.6v34.3h11.8v-34.9
	C231.1,262.1,229.9,255.1,226.4,250.6 M277.9,300.6l1.1-1.7l-0.2,7.1h9.4v-61.9h-10.9V281c0,5.2-0.4,9.2-2.7,12.1
	c-2.3,2.9-5.3,4.4-9.6,4.4c-4.2,0-7.9-1.3-10.2-4c-2.3-2.6-3.9-7.2-3.9-13.7v-35.6h-11.3v36.1c0,9.1,2.4,16,6.1,20.6
	c3.7,4.5,9.4,6.8,16.6,6.8c3.2,0,6.3-0.6,9.1-1.9C274.1,304.6,276.4,302.9,277.9,300.6 M330.8,294.9c-2.6,1.7-5,2.5-8,2.5
	c-4.7,0-8.2-1.9-10.7-5.6c-2.5-3.6-3.6-9.5-3.6-17.5c0-6.7,1.3-11.8,3.6-15.2c2.4-3.4,6-5.1,10.6-5.1c1.6,0,3.2,0.3,4.7,0.8
	c1.5,0.5,2.9,1.2,4.2,2c1.3,0.8,1.7,1.7,2.8,2.7c1.1,1,1,2,1,3.1v26.5C335.3,291.2,333.3,293.3,330.8,294.9L330.8,294.9z
	 M346.2,306.1v-84.9l-10.9,5.7v24.9l0.3-1.1c-1.7-1.9-3.3-3.5-6.1-4.9c-2.7-1.4-5.3-2.1-8.4-2.1c-3.2,0-6.1,0.6-9.1,1.9
	c-2.9,1.2-5.4,3.1-7.6,5.7c-2.2,2.5-4,5.8-5.3,9.7c-1.3,3.9-2,8.5-2,13.7c0,5.9,0.6,11,1.8,15.1c1.2,4.2,2.9,7.6,5.1,10.2
	c2.1,2.6,4.7,4.6,7.5,5.8c2.9,1.2,6,1.9,9.3,1.9c3.3,0,5.4-0.7,8-2c2.6-1.4,4.1-3.4,6.5-6v6.4H346.2L346.2,306.1z M369.2,269
	c0.6-5.1,2.1-8.6,4.6-11.4c2.5-2.8,6-4.1,10.3-4.1c2.6,0,4.9,0.5,6.8,1.4c1.9,0.9,3.4,2.1,4.7,3.6c1.2,1.5,2.2,3.3,2.8,5.2
	c0.6,1.9,1,3.1,1.2,5.3l0-0.3h-30.5L369.2,269L369.2,269z M399,293c-2,1.5-4.1,2.6-6.2,3.5c-2.3,0.9-4.8,1.3-7.5,1.3
	c-2,0-3.9-0.4-5.7-1c-1.8-0.7-3.5-1.8-5-3.2c-1.5-1.4-2.7-3.3-3.7-5.5c-1-2.2-1.6-4.6-2-7.7l-0.1-0.4h41.8c0.1-2.4,0.1-1.4,0.2-2.1
	c0.1-1,0.1-2.1,0.1-3.2c0-4.1-0.5-8.2-1.6-11.9c-1.1-3.7-2.7-7-4.8-9.8c-2.1-2.8-4.9-5-8.1-6.6c-3.2-1.6-7.1-2.4-11.5-2.4
	c-4,0-7.7,0.7-11,2.1c-3.3,1.4-6.2,3.4-8.5,6.1c-2.3,2.7-4.2,6-5.5,10c-1.3,4-2,8.6-2,13.9c0,5.1,0.7,9.6,2.1,13.6
	c1.4,4,3.4,7.3,5.8,10c2.4,2.7,5.3,4.8,8.5,6.2c3.2,1.4,6.7,2.1,10.3,2.1c4.7,0,8.8-0.7,12.1-2.1c3.2-1.3,6.2-3.2,8.8-5.6L399,293
	L399,293z M456.4,244.2l-10.7,33.9c-1,3-1.8,6.1-2.6,8.8c-0.7,2.7-1.3,5-1.7,6.8l-0.5,2.4l-0.5-2.3c-0.4-1.7-1-4-1.9-6.7
	c-0.8-2.7-1.8-6-2.8-9l-11.2-33.9h-11.8l22.2,61.9h11.6l21.8-61.9H456.4L456.4,244.2z M125.7,292.3c-2.4,3.4-6,5.1-10.6,5.1
	c-1.6,0-3.2-0.3-4.7-0.8c-1.5-0.5-2.9-1.2-4.2-2c-1.3-0.8-2.5-1.7-3.5-2.7c-1.1-1-2-1.9-2.7-2.9l-0.1-0.1v-26.5l0.1-0.1
	c1.6-2.1,3.7-4,6.2-5.6c2.5-1.7,5.4-2.5,8.4-2.5c4.7,0,8.4,1.9,10.9,5.6c2.5,3.6,3.7,9.5,3.7,17.5
	C129.3,283.8,128.1,288.9,125.7,292.3 M133.3,300.2c2.2-2.5,4-5.8,5.4-9.6c1.3-3.9,2-8.5,2-13.8c0-5.9-0.6-10.9-1.8-15.1
	c-1.2-4.2-2.9-7.6-5.1-10.2c-2.1-2.6-4.7-4.6-7.5-5.8c-2.9-1.2-6-1.9-9.3-1.9c-3.2,0-6.2,0.7-8.7,2c-2.6,1.4-5.1,3.1-7.3,5.2
	l-0.9,0.8v-6.6H88.8V329l11.1-5.7v-23.6l1,1.1c1.7,1.9,4,3.5,6.7,4.9c5.5,2.8,12.2,2.7,18,0.2C128.5,304.7,131.1,302.7,133.3,300.2"
	/>
</svg>
