<?xml version="1.0" encoding="utf-8"?>
<!-- Generator: Adobe Illustrator 26.0.3, SVG Export Plug-In . SVG Version: 6.00 Build 0)  -->
<svg version="1.0" id="katman_1" xmlns="http://www.w3.org/2000/svg" xmlns:xlink="http://www.w3.org/1999/xlink" x="0px" y="0px"
	 viewBox="0 0 800 600" style="enable-background:new 0 0 800 600;" xml:space="preserve">
<style type="text/css">
	.st0{clip-path:url(#SVGID_00000029736864030715419730000004385178963697997993_);}
	.st1{fill:#000824;}
	.st2{fill:#FA6158;}
	.st3{fill:#55BDCC;}
	.st4{fill:#A06BD6;}
</style>
<g>
	<defs>
		<rect id="SVGID_1_" x="85" y="237.5" width="629.7" height="124.1"/>
	</defs>
	<clipPath id="SVGID_00000132060698771475271820000008397247731322126012_">
		<use xlink:href="#SVGID_1_"  style="overflow:visible;"/>
	</clipPath>
	<g style="clip-path:url(#SVGID_00000132060698771475271820000008397247731322126012_);">
		<g>
			<path class="st1" d="M275.2,361.6v-96.3h14.5v7.9c1.8-2.7,4.3-4.8,7.2-6.2c3.6-1.9,7.5-2.9,11.6-2.8c4.3-0.3,8.6,0.4,12.5,2
				c4,1.6,7.5,4.1,10.4,7.3c5.6,7.5,8.4,16.8,7.8,26.1c0.5,9.3-2.3,18.4-7.9,25.9c-2.9,3.2-6.4,5.8-10.4,7.4
				c-4,1.6-8.3,2.4-12.7,2.1c-3.8,0-7.5-0.8-10.9-2.5c-3-1.4-5.6-3.5-7.5-6.2v35.4H275.2z M293.8,282.9c-3.5,4.8-5.2,10.7-4.9,16.7
				c-0.3,6,1.4,11.8,4.9,16.7c1.5,1.9,3.4,3.5,5.6,4.5c2.2,1.1,4.6,1.6,7.1,1.6c2.4,0,4.9-0.5,7.1-1.6c2.2-1.1,4.1-2.6,5.6-4.5
				c3.5-4.9,5.2-10.8,4.9-16.7c0.3-6-1.4-11.8-4.9-16.7c-1.5-1.9-3.4-3.5-5.6-4.5c-2.2-1.1-4.6-1.6-7.1-1.6c-2.5,0-4.9,0.6-7.1,1.6
				C297.2,279.4,295.3,281,293.8,282.9z"/>
			<path class="st1" d="M347.8,314.1c-0.1-3.2,0.6-6.4,2-9.3c1.4-2.9,3.6-5.4,6.2-7.2c6.4-4.2,14-6.3,21.7-6h11.9v-3
				c0.1-1.7-0.1-3.4-0.8-5s-1.7-3-3-4.1c-2.8-2-6.2-3.1-9.7-2.9c-2.9-0.1-5.7,0.7-8,2.3c-2.3,1.7-4,4-4.8,6.8l-13-2.7
				c1.3-5.6,4.6-10.5,9.2-13.8c4.9-3.5,10.8-5.3,16.8-5.1c18.5,0,27.8,9,27.8,27.1v42.6h-12l-1.6-9c-2.4,3.3-5.6,6-9.3,7.7
				c-3.7,1.8-7.8,2.6-11.9,2.3h-0.2c-5.6,0.2-11-1.7-15.2-5.3c-2.1-2-3.7-4.4-4.8-7.1C348.1,319.9,347.6,317,347.8,314.1
				L347.8,314.1z M362.9,314.1c-0.1,1.1,0.1,2.3,0.5,3.3c0.4,1.1,1,2,1.9,2.8c0.8,0.8,1.8,1.4,2.9,1.8c1.1,0.4,2.2,0.5,3.4,0.4
				c4.7,0.1,9.2-1.5,12.7-4.6c1.8-1.6,3.3-3.6,4.2-5.8c0.9-2.2,1.4-4.6,1.2-7v-1.6h-12.5c-3.7-0.2-7.3,0.8-10.4,2.9
				c-1.2,0.9-2.2,2-2.9,3.4C363.1,311.1,362.8,312.6,362.9,314.1"/>
			<path class="st1" d="M420.2,333.9v-68.6h14.5v11.4c2.1-3.8,5.2-7,9-9.3c3.4-2.1,7.3-3.2,11.4-3.3c3,0,6,0.5,8.8,1.7l-2.5,13
				c-2.4-1.4-5.2-2.2-8-2.1c-2.7,0.1-5.3,1-7.6,2.4c-2.3,1.4-4.2,3.5-5.5,5.8c-4.1,7.1-6,15.3-5.6,23.5v25.4H420.2z"/>
			<path class="st1" d="M467.6,314.1c-0.1-3.2,0.6-6.4,2-9.3c1.4-2.9,3.6-5.4,6.2-7.2c6.4-4.2,14-6.3,21.7-6h11.9v-3
				c0.1-1.7-0.1-3.4-0.8-5c-0.7-1.6-1.7-3-3-4.1c-2.8-2-6.2-3.1-9.7-2.9c-2.9-0.1-5.7,0.7-8,2.3c-2.3,1.7-4,4-4.8,6.8l-13-2.7
				c1.3-5.6,4.6-10.5,9.2-13.8c4.9-3.5,10.8-5.3,16.8-5.1c18.5,0,27.8,9,27.8,27.1v42.6h-12l-1.6-9c-2.4,3.3-5.6,6-9.3,7.7
				c-3.7,1.8-7.8,2.6-11.9,2.3h-0.2c-5.6,0.2-11-1.7-15.2-5.3c-2.1-2-3.7-4.4-4.8-7.1C467.9,319.9,467.4,317,467.6,314.1
				L467.6,314.1z M482.7,314.1c-0.1,1.1,0.1,2.3,0.5,3.3c0.4,1.1,1,2,1.9,2.8c0.8,0.8,1.8,1.4,2.9,1.8c1.1,0.4,2.2,0.5,3.4,0.4
				c4.6,0.1,9.2-1.5,12.7-4.6c1.8-1.6,3.3-3.6,4.2-5.8c0.9-2.2,1.4-4.6,1.2-7v-1.6h-12.5c-3.7-0.2-7.3,0.8-10.4,2.9
				c-1.2,0.9-2.2,2-2.9,3.4C482.9,311.1,482.6,312.6,482.7,314.1"/>
			<path class="st1" d="M540,333.9v-96.3h14.5v35.3c2.1-2.6,4.8-4.7,7.9-6c3.3-1.7,6.9-2.6,10.5-2.7c4.3-0.3,8.7,0.4,12.7,2.1
				c4,1.7,7.6,4.2,10.4,7.5c5.6,7.4,8.4,16.6,7.9,25.9c0.6,9.3-2.2,18.6-7.8,26c-2.9,3.2-6.4,5.7-10.4,7.3c-4,1.6-8.3,2.3-12.5,2
				c-4,0-8-0.9-11.5-2.8c-2.9-1.3-5.4-3.5-7.2-6.2v7.9H540z M558.6,282.9c-3.5,4.8-5.2,10.7-4.9,16.7c-0.3,6,1.4,11.8,4.9,16.7
				c1.5,1.9,3.4,3.5,5.6,4.5c2.2,1.1,4.6,1.6,7.1,1.6c2.4,0,4.9-0.5,7.1-1.6c2.2-1.1,4.1-2.6,5.6-4.5c3.5-4.9,5.2-10.8,4.9-16.7
				c0.3-6-1.4-11.8-4.9-16.7c-1.5-1.9-3.4-3.5-5.6-4.5c-2.2-1.1-4.6-1.6-7.1-1.6c-2.5,0-4.9,0.6-7.1,1.6
				C562.1,279.4,560.1,281,558.6,282.9"/>
			<path class="st1" d="M613.6,299.5c-0.3-9.2,3-18.2,9.2-25.1c3.2-3.2,7.1-5.8,11.3-7.6c4.2-1.8,8.8-2.7,13.4-2.7s9.2,0.9,13.4,2.7
				c4.2,1.8,8.1,4.3,11.3,7.6c6.2,6.9,9.5,15.9,9.2,25.2c0.3,9.2-3,18.2-9.2,25.1c-3.1,3.4-7,6.1-11.2,7.8
				c-4.3,1.8-8.9,2.6-13.5,2.4c0,0,0,0,0,0c0,0,0,0,0,0s0,0,0,0c0,0,0,0,0,0c-4.6,0.2-9.2-0.6-13.5-2.4c-4.3-1.8-8.1-4.4-11.2-7.8
				C616.7,317.8,613.4,308.7,613.6,299.5L613.6,299.5z M633.7,315.6c1.6,2.2,3.6,4,6.1,5.1c2.4,1.2,5.1,1.7,7.8,1.6
				c2.7,0.1,5.4-0.4,7.8-1.6c2.4-1.2,4.5-2.9,6.1-5.1c3.3-4.7,5-10.4,5-16.1s-1.7-11.4-5-16.1c-1.7-2.1-3.8-3.8-6.2-5
				c-2.4-1.2-5.1-1.8-7.8-1.8c-2.7,0-5.3,0.6-7.8,1.8c-2.4,1.2-4.5,2.9-6.2,5c-3.4,4.6-5.1,10.2-4.9,15.9
				C628.5,305.3,630.3,310.9,633.7,315.6"/>
			<path class="st1" d="M709.8,237.5h-14.5v96.3h14.5V237.5z"/>
		</g>
		<path class="st2" d="M154.2,339.9c-4.6,0-9.1-0.2-13.5-0.6c16.8,18.3,35.9,26.9,48.1,19.9c7.8-4.5,11.4-14.5,11.1-27.3
			C185.3,337.3,169.8,340.1,154.2,339.9"/>
		<path class="st2" d="M154.2,259.3c4.6,0,9.1,0.2,13.5,0.6c-16.8-18.3-35.8-26.9-48.1-19.9c-7.8,4.5-11.4,14.5-11.1,27.3
			C123,261.8,138.6,259.1,154.2,259.3"/>
		<path class="st3" d="M205.1,276.3c-2.5,15.3-7.8,30-15.8,43.4c-2.3,4-4.8,7.8-7.3,11.3c24.4-5.3,41.4-17.4,41.4-31.5
			C223.3,290.6,216.4,282.4,205.1,276.3"/>
		<path class="st3" d="M119.1,279.4c2.3-4,4.8-7.8,7.3-11.3C102,273.4,85,285.5,85,299.6c0,9,6.9,17.1,18.2,23.3
			C105.7,307.5,111.1,292.8,119.1,279.4"/>
		<path class="st4" d="M189.3,279.4c2.3,4,4.4,8,6.2,12c7.5-23.6,5.5-44.3-6.8-51.4c-7.8-4.5-18.4-2.6-29.4,4.1
			C171.5,253.9,181.6,265.9,189.3,279.4"/>
		<path class="st4" d="M119.1,319.7c-2.3-4-4.4-8-6.2-12c-7.6,23.6-5.5,44.3,6.7,51.4c7.8,4.5,18.4,2.6,29.4-4.1
			C136.8,345.2,126.7,333.3,119.1,319.7"/>
	</g>
</g>
</svg>
